<?xml version="1.0" encoding="UTF-8"?><svg xmlns="http://www.w3.org/2000/svg" xmlns:xlink="http://www.w3.org/1999/xlink" fill-opacity="1" color-rendering="auto" color-interpolation="auto" text-rendering="auto" stroke="black" stroke-linecap="square" width="1306" stroke-miterlimit="10" shape-rendering="auto" stroke-opacity="1" fill="black" stroke-dasharray="none" font-weight="normal" stroke-width="1" height="1286" font-family="'Dialog'" font-style="normal" stroke-linejoin="miter" font-size="12px" stroke-dashoffset="0" image-rendering="auto">
  <!--Generated by ySVG 2.5-->
  <defs id="genericDefs"/>
  <g>
    <defs id="defs1">
      <linearGradient x1="310.694" gradientUnits="userSpaceOnUse" x2="629.694" y1="342.6608" y2="382.558" id="linearGradient1" spreadMethod="reflect">
        <stop stop-opacity="1" stop-color="lime" offset="0%"/>
        <stop stop-opacity="1" stop-color="lime" offset="100%"/>
      </linearGradient>
      <linearGradient x1="310.694" gradientUnits="userSpaceOnUse" x2="629.694" y1="302.6608" y2="342.6608" id="linearGradient2" spreadMethod="reflect">
        <stop stop-opacity="1" stop-color="lime" offset="0%"/>
        <stop stop-opacity="1" stop-color="lime" offset="100%"/>
      </linearGradient>
      <linearGradient x1="310.694" gradientUnits="userSpaceOnUse" x2="629.694" y1="697.6377" y2="752.6377" id="linearGradient3" spreadMethod="reflect">
        <stop stop-opacity="1" stop-color="lime" offset="0%"/>
        <stop stop-opacity="1" stop-color="lime" offset="100%"/>
      </linearGradient>
      <linearGradient x1="310.694" gradientUnits="userSpaceOnUse" x2="629.694" y1="782.6377" y2="832.5349" id="linearGradient4" spreadMethod="reflect">
        <stop stop-opacity="1" stop-color="lime" offset="0%"/>
        <stop stop-opacity="1" stop-color="lime" offset="100%"/>
      </linearGradient>
      <linearGradient x1="310.694" gradientUnits="userSpaceOnUse" x2="629.694" y1="832.5349" y2="882.432" id="linearGradient5" spreadMethod="reflect">
        <stop stop-opacity="1" stop-color="lime" offset="0%"/>
        <stop stop-opacity="1" stop-color="lime" offset="100%"/>
      </linearGradient>
      <linearGradient x1="310.694" gradientUnits="userSpaceOnUse" x2="629.694" y1="912.432" y2="942.3291" id="linearGradient6" spreadMethod="reflect">
        <stop stop-opacity="1" stop-color="lime" offset="0%"/>
        <stop stop-opacity="1" stop-color="lime" offset="100%"/>
      </linearGradient>
      <linearGradient x1="310.694" gradientUnits="userSpaceOnUse" x2="629.694" y1="942.3291" y2="967.6689" id="linearGradient7" spreadMethod="reflect">
        <stop stop-opacity="1" stop-color="lime" offset="0%"/>
        <stop stop-opacity="1" stop-color="lime" offset="100%"/>
      </linearGradient>
      <linearGradient x1="572.0228" gradientUnits="userSpaceOnUse" x2="934.7728" y1="997.6689" y2="1052.6689" id="linearGradient8" spreadMethod="reflect">
        <stop stop-opacity="1" stop-color="rgb(255,102,0)" offset="0%"/>
        <stop stop-opacity="1" stop-color="rgb(255,102,0)" offset="100%"/>
      </linearGradient>
      <linearGradient x1="1064.9143" gradientUnits="userSpaceOnUse" x2="1169.573" y1="705.1377" y2="745.1377" id="linearGradient9" spreadMethod="reflect">
        <stop stop-opacity="1" stop-color="rgb(204,255,255)" offset="0%"/>
        <stop stop-opacity="1" stop-color="rgb(204,255,255)" offset="100%"/>
      </linearGradient>
      <linearGradient x1="674.6478" gradientUnits="userSpaceOnUse" x2="832.1478" y1="899.8806" y2="954.8806" id="linearGradient10" spreadMethod="reflect">
        <stop stop-opacity="1" stop-color="rgb(204,255,255)" offset="0%"/>
        <stop stop-opacity="1" stop-color="rgb(204,255,255)" offset="100%"/>
      </linearGradient>
      <linearGradient x1="917.3507" gradientUnits="userSpaceOnUse" x2="1074.8507" y1="899.8806" y2="954.8806" id="linearGradient11" spreadMethod="reflect">
        <stop stop-opacity="1" stop-color="rgb(204,255,255)" offset="0%"/>
        <stop stop-opacity="1" stop-color="rgb(204,255,255)" offset="100%"/>
      </linearGradient>
      <linearGradient x1="310.694" gradientUnits="userSpaceOnUse" x2="629.694" y1="500.832" y2="520.7292" id="linearGradient12" spreadMethod="reflect">
        <stop stop-opacity="1" stop-color="lime" offset="0%"/>
        <stop stop-opacity="1" stop-color="lime" offset="100%"/>
      </linearGradient>
      <linearGradient x1="310.694" gradientUnits="userSpaceOnUse" x2="629.694" y1="460.832" y2="500.832" id="linearGradient13" spreadMethod="reflect">
        <stop stop-opacity="1" stop-color="lime" offset="0%"/>
        <stop stop-opacity="1" stop-color="lime" offset="100%"/>
      </linearGradient>
      <linearGradient x1="310.694" gradientUnits="userSpaceOnUse" x2="629.694" y1="602.8177" y2="622.7148" id="linearGradient14" spreadMethod="reflect">
        <stop stop-opacity="1" stop-color="lime" offset="0%"/>
        <stop stop-opacity="1" stop-color="lime" offset="100%"/>
      </linearGradient>
      <linearGradient x1="310.694" gradientUnits="userSpaceOnUse" x2="629.694" y1="547.8177" y2="602.8177" id="linearGradient15" spreadMethod="reflect">
        <stop stop-opacity="1" stop-color="lime" offset="0%"/>
        <stop stop-opacity="1" stop-color="lime" offset="100%"/>
      </linearGradient>
      <linearGradient x1="1287.4661" gradientUnits="userSpaceOnUse" x2="1555.3718" y1="674.3252" y2="775.9502" id="linearGradient16" spreadMethod="reflect">
        <stop stop-opacity="1" stop-color="rgb(255,204,0)" offset="0%"/>
        <stop stop-opacity="1" stop-color="rgb(255,204,0)" offset="100%"/>
      </linearGradient>
      <linearGradient x1="862.1478" gradientUnits="userSpaceOnUse" x2="1130.0536" y1="1119.4547" y2="1180.4547" id="linearGradient17" spreadMethod="reflect">
        <stop stop-opacity="1" stop-color="rgb(255,204,0)" offset="0%"/>
        <stop stop-opacity="1" stop-color="rgb(255,204,0)" offset="100%"/>
      </linearGradient>
      <clipPath clipPathUnits="userSpaceOnUse" id="clipPath1">
        <path d="M0 0 L1306 0 L1306 1286 L0 1286 L0 0 Z"/>
      </clipPath>
      <clipPath clipPathUnits="userSpaceOnUse" id="clipPath2">
        <path d="M265 -90 L1571 -90 L1571 1196 L265 1196 L265 -90 Z"/>
      </clipPath>
    </defs>
    <g fill="white" text-rendering="geometricPrecision" shape-rendering="geometricPrecision" transform="translate(-265,90)" stroke="white">
      <rect x="265" width="1306" height="1286" y="-90" clip-path="url(#clipPath2)" stroke="none"/>
    </g>
    <g fill="rgb(245,245,245)" text-rendering="geometricPrecision" shape-rendering="geometricPrecision" transform="matrix(1,0,0,1,-265,90)" stroke="rgb(245,245,245)">
      <rect x="280.694" y="248.7389" clip-path="url(#clipPath2)" width="903.879" rx="4" ry="4" height="818.93" stroke="none"/>
      <rect x="280.694" y="248.7389" clip-path="url(#clipPath2)" fill="rgb(235,235,235)" width="903.879" height="38.9219" stroke="none"/>
    </g>
    <g font-size="15px" stroke-linecap="butt" transform="matrix(1,0,0,1,-265,90)" text-rendering="geometricPrecision" font-family="sans-serif" shape-rendering="geometricPrecision" stroke-miterlimit="1.45">
      <text x="964.7728" xml:space="preserve" y="264.6623" clip-path="url(#clipPath2)" stroke="none">Charges Extraordinaires (CE)</text>
      <text x="1084.8167" xml:space="preserve" y="282.1232" clip-path="url(#clipPath2)" stroke="none">pages 17, 18</text>
      <rect x="280.694" y="248.7389" clip-path="url(#clipPath2)" fill="none" width="903.879" stroke-dasharray="6,2" rx="4" ry="4" height="818.93"/>
    </g>
    <g fill="url(#linearGradient1)" text-rendering="geometricPrecision" shape-rendering="geometricPrecision" transform="matrix(1,0,0,1,-265,90)" stroke="url(#linearGradient1)">
      <path d="M310.694 342.6608 L629.694 342.6608 L629.694 382.558 L310.694 382.558 Z" stroke="none" clip-path="url(#clipPath2)"/>
    </g>
    <g text-rendering="geometricPrecision" stroke-miterlimit="1.45" shape-rendering="geometricPrecision" transform="matrix(1,0,0,1,-265,90)" stroke-linecap="butt">
      <path fill="none" d="M310.694 342.6608 L629.694 342.6608 L629.694 382.558 L310.694 382.558 Z" clip-path="url(#clipPath2)"/>
      <text x="316.694" font-size="10px" y="354.4307" clip-path="url(#clipPath2)" font-family="sans-serif" stroke="none" xml:space="preserve">Abattement de revenu imposable du fait de charges</text>
      <text x="316.694" font-size="10px" y="366.0713" clip-path="url(#clipPath2)" font-family="sans-serif" stroke="none" xml:space="preserve">extraordinaires (article 127 LIR) qui sont inévitables </text>
      <text x="316.694" font-size="10px" y="377.7119" clip-path="url(#clipPath2)" font-family="sans-serif" stroke="none" xml:space="preserve">et qui réduisent de façon considérable la faculté contributive.</text>
    </g>
    <g fill="url(#linearGradient2)" text-rendering="geometricPrecision" shape-rendering="geometricPrecision" transform="matrix(1,0,0,1,-265,90)" stroke="url(#linearGradient2)">
      <path d="M310.694 302.6608 L629.694 302.6608 L629.694 342.6608 L310.694 342.6608 Z" stroke="none" clip-path="url(#clipPath2)"/>
    </g>
    <g text-rendering="geometricPrecision" stroke-miterlimit="1.45" shape-rendering="geometricPrecision" transform="matrix(1,0,0,1,-265,90)" stroke-linecap="butt">
      <path fill="none" d="M310.694 302.6608 L629.694 302.6608 L629.694 342.6608 L310.694 342.6608 Z" clip-path="url(#clipPath2)"/>
      <text x="316.694" xml:space="preserve" y="319.8307" clip-path="url(#clipPath2)" font-family="sans-serif" stroke="none">Abattement de revenu imposable selon</text>
      <text x="316.694" xml:space="preserve" y="333.7995" clip-path="url(#clipPath2)" font-family="sans-serif" stroke="none">article 127 LIR</text>
    </g>
    <g fill="url(#linearGradient3)" text-rendering="geometricPrecision" shape-rendering="geometricPrecision" transform="matrix(1,0,0,1,-265,90)" stroke="url(#linearGradient3)">
      <path d="M310.694 697.6377 L629.694 697.6377 L629.694 752.6377 L310.694 752.6377 Z" stroke="none" clip-path="url(#clipPath2)"/>
    </g>
    <g text-rendering="geometricPrecision" stroke-miterlimit="1.45" shape-rendering="geometricPrecision" transform="matrix(1,0,0,1,-265,90)" stroke-linecap="butt">
      <path fill="none" d="M310.694 697.6377 L629.694 697.6377 L629.694 752.6377 L310.694 752.6377 Z" clip-path="url(#clipPath2)"/>
      <text x="316.694" xml:space="preserve" y="715.3232" clip-path="url(#clipPath2)" font-family="sans-serif" stroke="none">Abattement de revenu imposable pour charges</text>
      <text x="316.694" xml:space="preserve" y="729.292" clip-path="url(#clipPath2)" font-family="sans-serif" stroke="none">extraordinaires en raison des enfants n'ayant pas</text>
      <text x="316.694" xml:space="preserve" y="743.2607" clip-path="url(#clipPath2)" font-family="sans-serif" stroke="none">fait partie du ménage du contribuable.</text>
    </g>
    <g fill="url(#linearGradient4)" text-rendering="geometricPrecision" shape-rendering="geometricPrecision" transform="matrix(1,0,0,1,-265,90)" stroke="url(#linearGradient4)">
      <path d="M310.694 782.6377 L629.694 782.6377 L629.694 832.5349 L310.694 832.5349 Z" stroke="none" clip-path="url(#clipPath2)"/>
    </g>
    <g text-rendering="geometricPrecision" stroke-miterlimit="1.45" shape-rendering="geometricPrecision" transform="matrix(1,0,0,1,-265,90)" stroke-linecap="butt">
      <path fill="none" d="M310.694 782.6377 L629.694 782.6377 L629.694 832.5349 L310.694 832.5349 Z" clip-path="url(#clipPath2)"/>
      <text x="316.694" xml:space="preserve" y="797.7719" clip-path="url(#clipPath2)" font-family="sans-serif" stroke="none">Mobilité durable</text>
      <text x="316.694" xml:space="preserve" y="811.7406" clip-path="url(#clipPath2)" font-family="sans-serif" stroke="none">(Indiquer le montant de l'abattement réduit de </text>
      <text x="316.694" xml:space="preserve" y="825.7094" clip-path="url(#clipPath2)" font-family="sans-serif" stroke="none">toute aide directe de l'Etat)</text>
    </g>
    <g fill="url(#linearGradient5)" text-rendering="geometricPrecision" shape-rendering="geometricPrecision" transform="matrix(1,0,0,1,-265,90)" stroke="url(#linearGradient5)">
      <path d="M310.694 832.5349 L629.694 832.5349 L629.694 882.432 L310.694 882.432 Z" stroke="none" clip-path="url(#clipPath2)"/>
    </g>
    <g text-rendering="geometricPrecision" stroke-miterlimit="1.45" shape-rendering="geometricPrecision" transform="matrix(1,0,0,1,-265,90)" stroke-linecap="butt">
      <path fill="none" d="M310.694 832.5349 L629.694 832.5349 L629.694 882.432 L310.694 882.432 Z" clip-path="url(#clipPath2)"/>
      <text x="316.694" font-size="10px" y="849.3047" clip-path="url(#clipPath2)" font-family="sans-serif" stroke="none" xml:space="preserve">Abattement de revenu imposable pour mobilité durable selon</text>
      <text x="316.694" font-size="10px" y="860.9453" clip-path="url(#clipPath2)" font-family="sans-serif" stroke="none" xml:space="preserve">article 129d LIR pour acquisition de voiture électrique ou</text>
      <text x="316.694" font-size="10px" y="872.5859" clip-path="url(#clipPath2)" font-family="sans-serif" stroke="none" xml:space="preserve">hybride ou de cycle avec ou sans pédalage assisté.</text>
    </g>
    <g fill="url(#linearGradient6)" text-rendering="geometricPrecision" shape-rendering="geometricPrecision" transform="matrix(1,0,0,1,-265,90)" stroke="url(#linearGradient6)">
      <path d="M310.694 912.432 L629.694 912.432 L629.694 942.3291 L310.694 942.3291 Z" stroke="none" clip-path="url(#clipPath2)"/>
    </g>
    <g text-rendering="geometricPrecision" stroke-miterlimit="1.45" shape-rendering="geometricPrecision" transform="matrix(1,0,0,1,-265,90)" stroke-linecap="butt">
      <path fill="none" d="M310.694 912.432 L629.694 912.432 L629.694 942.3291 L310.694 942.3291 Z" clip-path="url(#clipPath2)"/>
      <text x="316.694" xml:space="preserve" y="931.5349" clip-path="url(#clipPath2)" font-family="sans-serif" stroke="none">Investissement en capital-risque</text>
    </g>
    <g fill="url(#linearGradient7)" text-rendering="geometricPrecision" shape-rendering="geometricPrecision" transform="matrix(1,0,0,1,-265,90)" stroke="url(#linearGradient7)">
      <path d="M310.694 942.3291 L629.694 942.3291 L629.694 967.6689 L310.694 967.6689 Z" stroke="none" clip-path="url(#clipPath2)"/>
    </g>
    <g text-rendering="geometricPrecision" stroke-miterlimit="1.45" shape-rendering="geometricPrecision" transform="matrix(1,0,0,1,-265,90)" stroke-linecap="butt">
      <path fill="none" d="M310.694 942.3291 L629.694 942.3291 L629.694 967.6689 L310.694 967.6689 Z" clip-path="url(#clipPath2)"/>
      <text x="316.694" font-size="10px" y="958.4609" clip-path="url(#clipPath2)" font-family="sans-serif" stroke="none" xml:space="preserve">Selon art IV de la loi du 22 décembre 1993</text>
    </g>
    <g fill="url(#linearGradient8)" text-rendering="geometricPrecision" shape-rendering="geometricPrecision" transform="matrix(1,0,0,1,-265,90)" stroke="url(#linearGradient8)">
      <path d="M572.0228 997.6689 L934.7728 997.6689 L934.7728 1052.6689 L572.0228 1052.6689 Z" stroke="none" clip-path="url(#clipPath2)"/>
    </g>
    <g text-rendering="geometricPrecision" stroke-miterlimit="1.45" shape-rendering="geometricPrecision" font-family="sans-serif" transform="matrix(1,0,0,1,-265,90)" stroke-linecap="butt">
      <text x="578.0228" xml:space="preserve" y="1015.3545" clip-path="url(#clipPath2)" stroke="none">Introduire une demande auprès du ministère des finances</text>
      <text x="578.0228" xml:space="preserve" y="1029.3232" clip-path="url(#clipPath2)" stroke="none">avant l'apport en capital-risque pour avoir le certificat</text>
      <text x="578.0228" xml:space="preserve" y="1043.292" clip-path="url(#clipPath2)" stroke="none">nécessaire!</text>
    </g>
    <g fill="url(#linearGradient9)" text-rendering="geometricPrecision" shape-rendering="geometricPrecision" transform="matrix(1,0,0,1,-265,90)" stroke="url(#linearGradient9)">
      <path d="M1064.9143 705.1377 L1159.573 705.1377 L1169.573 725.1377 L1159.573 745.1377 L1064.9143 745.1377 Z" stroke="none" clip-path="url(#clipPath2)"/>
    </g>
    <g text-rendering="geometricPrecision" stroke-miterlimit="1.45" shape-rendering="geometricPrecision" transform="matrix(1,0,0,1,-265,90)" stroke-linecap="butt">
      <path fill="none" d="M1064.9143 705.1377 L1159.573 705.1377 L1169.573 725.1377 L1159.573 745.1377 L1064.9143 745.1377 Z" clip-path="url(#clipPath2)"/>
      <text x="1082.4009" xml:space="preserve" y="729.292" clip-path="url(#clipPath2)" font-family="sans-serif" stroke="none">Additionner</text>
    </g>
    <g fill="url(#linearGradient10)" text-rendering="geometricPrecision" shape-rendering="geometricPrecision" transform="matrix(1,0,0,1,-265,90)" stroke="url(#linearGradient10)">
      <path d="M674.6478 899.8806 L818.3978 899.8806 L832.1478 927.3806 L818.3978 954.8806 L674.6478 954.8806 Z" stroke="none" clip-path="url(#clipPath2)"/>
    </g>
    <g text-rendering="geometricPrecision" stroke-miterlimit="1.45" shape-rendering="geometricPrecision" transform="matrix(1,0,0,1,-265,90)" stroke-linecap="butt">
      <path fill="none" d="M674.6478 899.8806 L818.3978 899.8806 L832.1478 927.3806 L818.3978 954.8806 L674.6478 954.8806 Z" clip-path="url(#clipPath2)"/>
      <text x="740.9935" xml:space="preserve" y="917.5661" clip-path="url(#clipPath2)" font-family="sans-serif" stroke="none">Max</text>
      <text x="702.641" xml:space="preserve" y="931.5349" clip-path="url(#clipPath2)" font-family="sans-serif" stroke="none">20% de la valeur</text>
      <text x="687.5648" xml:space="preserve" y="945.5036" clip-path="url(#clipPath2)" font-family="sans-serif" stroke="none">nominale du certificat</text>
    </g>
    <g fill="url(#linearGradient11)" text-rendering="geometricPrecision" shape-rendering="geometricPrecision" transform="matrix(1,0,0,1,-265,90)" stroke="url(#linearGradient11)">
      <path d="M917.3507 899.8806 L1061.1007 899.8806 L1074.8507 927.3806 L1061.1007 954.8806 L917.3507 954.8806 Z" stroke="none" clip-path="url(#clipPath2)"/>
    </g>
    <g text-rendering="geometricPrecision" stroke-miterlimit="1.45" shape-rendering="geometricPrecision" transform="matrix(1,0,0,1,-265,90)" stroke-linecap="butt">
      <path fill="none" d="M917.3507 899.8806 L1061.1007 899.8806 L1074.8507 927.3806 L1061.1007 954.8806 L917.3507 954.8806 Z" clip-path="url(#clipPath2)"/>
      <text x="983.6964" xml:space="preserve" y="917.5661" clip-path="url(#clipPath2)" font-family="sans-serif" stroke="none">Max</text>
      <text x="973.2462" xml:space="preserve" y="931.5349" clip-path="url(#clipPath2)" font-family="sans-serif" stroke="none">30% du</text>
      <text x="942.2267" xml:space="preserve" y="945.5036" clip-path="url(#clipPath2)" font-family="sans-serif" stroke="none">revenu imposable</text>
    </g>
    <g text-rendering="geometricPrecision" stroke-miterlimit="1.45" shape-rendering="geometricPrecision" transform="matrix(1,0,0,1,-265,90)" stroke-linecap="butt">
      <path fill="none" d="M629.7053 322.6608 L1107.2437 322.6608 L1111.6187 323.2858 L1114.7437 325.1608 L1116.6187 328.2858 L1117.2437 332.6608 L1117.2437 697.1416" clip-path="url(#clipPath2)"/>
      <path d="M1117.2437 705.1416 L1122.2437 693.1416 L1117.2437 696.1416 L1112.2437 693.1416 Z" clip-path="url(#clipPath2)" stroke="none"/>
      <path fill="none" d="M629.7053 725.1377 L1056.9011 725.1377" clip-path="url(#clipPath2)"/>
      <path d="M1064.9011 725.1377 L1052.9011 720.1377 L1055.9011 725.1377 L1052.9011 730.1377 Z" clip-path="url(#clipPath2)" stroke="none"/>
      <path fill="none" d="M629.7053 807.5863 L1107.2437 807.5863 L1111.6187 806.9613 L1114.7437 805.0863 L1116.6187 801.9613 L1117.2437 797.5863 L1117.2437 753.146" clip-path="url(#clipPath2)"/>
      <path d="M1117.2437 745.146 L1112.2437 757.146 L1117.2437 754.146 L1122.2437 757.146 Z" clip-path="url(#clipPath2)" stroke="none"/>
      <path fill="none" d="M629.7036 927.3806 L666.6451 927.3806" clip-path="url(#clipPath2)"/>
      <path d="M674.6451 927.3806 L662.6451 922.3806 L665.6451 927.3806 L662.6451 932.3806 Z" clip-path="url(#clipPath2)" stroke="none"/>
      <path fill="none" stroke-dasharray="6,2" d="M753.3978 954.8358 L753.3978 997.6607" clip-path="url(#clipPath2)"/>
      <path fill="none" d="M832.1755 927.3806 L909.3798 927.3806" clip-path="url(#clipPath2)"/>
      <path d="M917.3798 927.3806 L905.3798 922.3806 L908.3798 927.3806 L905.3798 932.3806 Z" clip-path="url(#clipPath2)" stroke="none"/>
      <path fill="none" d="M1074.8613 927.3806 L1107.2437 927.3806 L1111.6187 926.7556 L1114.7437 924.8806 L1116.6187 921.7556 L1117.2437 917.3806 L1117.2437 753.1349" clip-path="url(#clipPath2)"/>
      <path d="M1117.2437 745.1349 L1112.2437 757.1349 L1117.2437 754.1349 L1122.2437 757.1349 Z" clip-path="url(#clipPath2)" stroke="none"/>
    </g>
    <g fill="rgb(225,225,225)" text-rendering="geometricPrecision" shape-rendering="geometricPrecision" transform="matrix(1,0,0,1,-265,90)" stroke="rgb(225,225,225)">
      <rect x="295.694" y="424.3711" clip-path="url(#clipPath2)" width="349" rx="4" ry="4" height="213.3438" stroke="none"/>
      <rect x="295.694" y="424.3711" clip-path="url(#clipPath2)" fill="rgb(235,235,235)" width="349" height="21.4609" stroke="none"/>
    </g>
    <g font-size="15px" stroke-linecap="butt" transform="matrix(1,0,0,1,-265,90)" text-rendering="geometricPrecision" font-family="sans-serif" shape-rendering="geometricPrecision" stroke-miterlimit="1.45">
      <text x="459.2003" xml:space="preserve" y="440.2944" clip-path="url(#clipPath2)" stroke="none">Abattements forfaitaires</text>
      <rect x="295.694" y="424.3711" clip-path="url(#clipPath2)" fill="none" width="349" stroke-dasharray="6,2" rx="4" ry="4" height="213.3438"/>
    </g>
    <g fill="url(#linearGradient12)" text-rendering="geometricPrecision" shape-rendering="geometricPrecision" transform="matrix(1,0,0,1,-265,90)" stroke="url(#linearGradient12)">
      <path d="M310.694 500.832 L629.694 500.832 L629.694 520.7292 L310.694 520.7292 Z" stroke="none" clip-path="url(#clipPath2)"/>
    </g>
    <g text-rendering="geometricPrecision" stroke-miterlimit="1.45" shape-rendering="geometricPrecision" transform="matrix(1,0,0,1,-265,90)" stroke-linecap="butt">
      <path fill="none" d="M310.694 500.832 L629.694 500.832 L629.694 520.7292 L310.694 520.7292 Z" clip-path="url(#clipPath2)"/>
      <text x="316.694" font-size="10px" y="514.2426" clip-path="url(#clipPath2)" font-family="sans-serif" stroke="none" xml:space="preserve">Règlement grand-ducal modifié du 7 mars 1969</text>
    </g>
    <g fill="url(#linearGradient13)" text-rendering="geometricPrecision" shape-rendering="geometricPrecision" transform="matrix(1,0,0,1,-265,90)" stroke="url(#linearGradient13)">
      <path d="M310.694 460.832 L629.694 460.832 L629.694 500.832 L310.694 500.832 Z" stroke="none" clip-path="url(#clipPath2)"/>
    </g>
    <g text-rendering="geometricPrecision" stroke-miterlimit="1.45" shape-rendering="geometricPrecision" transform="matrix(1,0,0,1,-265,90)" stroke-linecap="butt">
      <path fill="none" d="M310.694 460.832 L629.694 460.832 L629.694 500.832 L310.694 500.832 Z" clip-path="url(#clipPath2)"/>
      <text x="316.694" xml:space="preserve" y="484.9863" clip-path="url(#clipPath2)" font-family="sans-serif" stroke="none">Invalidité et infirmité</text>
    </g>
    <g fill="url(#linearGradient14)" text-rendering="geometricPrecision" shape-rendering="geometricPrecision" transform="matrix(1,0,0,1,-265,90)" stroke="url(#linearGradient14)">
      <path d="M310.694 602.8177 L629.694 602.8177 L629.694 622.7148 L310.694 622.7148 Z" stroke="none" clip-path="url(#clipPath2)"/>
    </g>
    <g text-rendering="geometricPrecision" stroke-miterlimit="1.45" shape-rendering="geometricPrecision" transform="matrix(1,0,0,1,-265,90)" stroke-linecap="butt">
      <path fill="none" d="M310.694 602.8177 L629.694 602.8177 L629.694 622.7148 L310.694 622.7148 Z" clip-path="url(#clipPath2)"/>
      <text x="316.694" font-size="10px" y="616.2282" clip-path="url(#clipPath2)" font-family="sans-serif" stroke="none" xml:space="preserve">Règlement grand-ducal modifié du 19 décembre 2008</text>
    </g>
    <g fill="url(#linearGradient15)" text-rendering="geometricPrecision" shape-rendering="geometricPrecision" transform="matrix(1,0,0,1,-265,90)" stroke="url(#linearGradient15)">
      <path d="M310.694 547.8177 L629.694 547.8177 L629.694 602.8177 L310.694 602.8177 Z" stroke="none" clip-path="url(#clipPath2)"/>
    </g>
    <g text-rendering="geometricPrecision" stroke-miterlimit="1.45" shape-rendering="geometricPrecision" transform="matrix(1,0,0,1,-265,90)" stroke-linecap="butt">
      <path fill="none" d="M310.694 547.8177 L629.694 547.8177 L629.694 602.8177 L310.694 602.8177 Z" clip-path="url(#clipPath2)"/>
      <text x="316.694" xml:space="preserve" y="565.5033" clip-path="url(#clipPath2)" font-family="sans-serif" stroke="none">Frais de domesticité, frais d'aides et de soins</text>
      <text x="316.694" xml:space="preserve" y="579.472" clip-path="url(#clipPath2)" font-family="sans-serif" stroke="none">en raison de l'état de dépendence, frais de garde</text>
      <text x="316.694" xml:space="preserve" y="593.4408" clip-path="url(#clipPath2)" font-family="sans-serif" stroke="none">d'enfant</text>
    </g>
    <g text-rendering="geometricPrecision" stroke-miterlimit="1.45" shape-rendering="geometricPrecision" transform="matrix(1,0,0,1,-265,90)" stroke-linecap="butt">
      <path fill="none" d="M282.0221 -74.7344 L1091.777 -74.7344 L1091.777 45.2656 L282.0221 45.2656 Z" clip-path="url(#clipPath2)"/>
      <text x="288.0221" font-size="30px" y="-21.8096" clip-path="url(#clipPath2)" font-family="sans-serif" stroke="none" xml:space="preserve">Partie CE</text>
      <text x="288.0221" font-size="30px" y="13.1123" clip-path="url(#clipPath2)" font-family="sans-serif" stroke="none" xml:space="preserve">"Charges extraordinaires"</text>
    </g>
    <g text-rendering="geometricPrecision" stroke-miterlimit="1.45" shape-rendering="geometricPrecision" transform="matrix(1,0,0,1,-265,90)" stroke-linecap="butt">
      <path fill="none" d="M282.0598 45.2656 L1091.777 45.2656 L1091.777 106.2656 L282.0598 106.2656 Z" clip-path="url(#clipPath2)"/>
      <text x="288.0598" font-size="20px" y="82.6895" clip-path="url(#clipPath2)" font-family="sans-serif" stroke="none" xml:space="preserve">2020-12-29</text>
    </g>
    <g text-rendering="geometricPrecision" stroke-miterlimit="1.45" shape-rendering="geometricPrecision" transform="matrix(1,0,0,1,-265,90)" stroke-linecap="butt">
      <path fill="none" d="M282.0598 106.2656 L1091.777 106.2656 L1091.777 167.2656 L282.0598 167.2656 Z" clip-path="url(#clipPath2)"/>
      <text x="288.0598" font-size="20px" y="132.0488" clip-path="url(#clipPath2)" font-family="sans-serif" stroke="none" xml:space="preserve">Des erreurs et inconsistances sont possibles dans ce diagramme.</text>
      <text x="288.0598" font-size="20px" y="155.3301" clip-path="url(#clipPath2)" font-family="sans-serif" stroke="none" xml:space="preserve">Diagramme qui n'est pas à être interprété comme conseil légal!</text>
    </g>
    <g fill="url(#linearGradient16)" text-rendering="geometricPrecision" shape-rendering="geometricPrecision" transform="matrix(1,0,0,1,-265,90)" stroke="url(#linearGradient16)">
      <rect x="1287.4661" width="267.9057" height="101.625" y="674.3252" clip-path="url(#clipPath2)" stroke="none"/>
    </g>
    <g text-rendering="geometricPrecision" stroke-miterlimit="1.45" shape-rendering="geometricPrecision" transform="matrix(1,0,0,1,-265,90)" stroke-linecap="butt">
      <rect fill="none" x="1287.4661" width="267.9057" height="101.625" y="674.3252" clip-path="url(#clipPath2)"/>
      <path fill="none" d="M1297.4661 674.3252 L1297.4661 775.9502 M1545.3718 674.3252 L1545.3718 775.9502 M1297.4661 674.3252 Z" clip-path="url(#clipPath2)"/>
      <text x="1385.7412" xml:space="preserve" y="701.3545" clip-path="url(#clipPath2)" font-family="sans-serif" stroke="none">Abattement</text>
      <text x="1358.1377" xml:space="preserve" y="715.3232" clip-path="url(#clipPath2)" font-family="sans-serif" stroke="none">de revenu imposable</text>
      <text x="1419.5117" xml:space="preserve" y="729.292" clip-path="url(#clipPath2)" font-family="sans-serif" stroke="none"> </text>
      <text x="1343.6768" xml:space="preserve" y="743.2607" clip-path="url(#clipPath2)" font-family="sans-serif" stroke="none">(pas de case; le calcul est</text>
      <text x="1348.6045" xml:space="preserve" y="757.2295" clip-path="url(#clipPath2)" font-family="sans-serif" stroke="none">fait par l'administration)</text>
    </g>
    <g fill="url(#linearGradient17)" text-rendering="geometricPrecision" shape-rendering="geometricPrecision" transform="matrix(1,0,0,1,-265,90)" stroke="url(#linearGradient17)">
      <rect x="862.1479" width="267.9057" height="61" y="1119.4548" clip-path="url(#clipPath2)" stroke="none"/>
    </g>
    <g text-rendering="geometricPrecision" stroke-miterlimit="1.45" shape-rendering="geometricPrecision" transform="matrix(1,0,0,1,-265,90)" stroke-linecap="butt">
      <rect fill="none" x="862.1479" width="267.9057" height="61" y="1119.4548" clip-path="url(#clipPath2)"/>
      <path fill="none" d="M872.1478 1119.4547 L872.1478 1180.4547 M1120.0536 1119.4547 L1120.0536 1180.4547 M872.1478 1119.4547 Z" clip-path="url(#clipPath2)"/>
      <text x="940.5245" xml:space="preserve" y="1154.109" clip-path="url(#clipPath2)" font-family="sans-serif" stroke="none">Revenu imposable</text>
    </g>
    <g text-rendering="geometricPrecision" stroke-miterlimit="1.45" shape-rendering="geometricPrecision" transform="matrix(1,0,0,1,-265,90)" stroke-linecap="butt">
      <path fill="none" d="M629.7053 480.832 L1107.2437 480.832 L1111.6187 481.457 L1114.7437 483.332 L1116.6187 486.457 L1117.2437 490.832 L1117.2437 697.1268" clip-path="url(#clipPath2)"/>
      <path d="M1117.2437 705.1268 L1122.2437 693.1268 L1117.2437 696.1268 L1112.2437 693.1268 Z" clip-path="url(#clipPath2)" stroke="none"/>
      <path fill="none" d="M629.7053 575.3177 L1107.2437 575.3177 L1111.6187 575.9427 L1114.7437 577.8177 L1116.6187 580.9427 L1117.2437 585.3177 L1117.2437 697.13" clip-path="url(#clipPath2)"/>
      <path d="M1117.2437 705.13 L1122.2437 693.13 L1117.2437 696.13 L1112.2437 693.13 Z" clip-path="url(#clipPath2)" stroke="none"/>
      <path fill="none" d="M1169.5609 725.1377 L1279.4657 725.1377" clip-path="url(#clipPath2)"/>
      <path d="M1287.4657 725.1377 L1275.4657 720.1377 L1278.4657 725.1377 L1275.4657 730.1377 Z" clip-path="url(#clipPath2)" stroke="none"/>
      <path fill="none" d="M996.1007 1119.4432 L996.1007 962.9052" clip-path="url(#clipPath2)"/>
      <path d="M996.1007 954.9052 L991.1007 966.9052 L996.1007 963.9052 L1001.1007 966.9052 Z" clip-path="url(#clipPath2)" stroke="none"/>
    </g>
  </g>
</svg>
